<svg width="420" height="420" viewBox="0 0 420 420" fill="none" xmlns="http://www.w3.org/2000/svg">
<path d="M90 146H290V155C290 210.228 245.228 255 190 255V255C134.772 255 90 210.228 90 155V146Z" fill="black"/>
<path d="M138 304.924L191 207.924" stroke="black" stroke-width="17" stroke-linecap="round" stroke-linejoin="round"/>
<path d="M241.22 304.701L191.459 206" stroke="black" stroke-width="17" stroke-linecap="round" stroke-linejoin="round"/>
<g filter="url(#filter0_dd_22_454)">
<path d="M134 271H247.534" stroke="black" stroke-width="18" stroke-linecap="round"/>
</g>
<path d="M134 121.5C129.858 121.5 126.5 124.858 126.5 129C126.5 133.142 129.858 136.5 134 136.5V121.5ZM134 136.5H330V121.5H134V136.5Z" fill="black"/>
<rect x="191" y="116" width="41" height="26" rx="12" fill="black"/>
<rect x="249" y="116" width="41" height="26" rx="12" fill="black"/>
<rect x="134" y="116" width="41" height="26" rx="12" fill="black"/>
<defs>
<filter id="filter0_dd_22_454" x="121" y="260" width="139.534" height="28" filterUnits="userSpaceOnUse" color-interpolation-filters="sRGB">
<feFlood flood-opacity="0" result="BackgroundImageFix"/>
<feColorMatrix in="SourceAlpha" type="matrix" values="0 0 0 0 0 0 0 0 0 0 0 0 0 0 0 0 0 0 127 0" result="hardAlpha"/>
<feOffset dy="-2"/>
<feComposite in2="hardAlpha" operator="out"/>
<feColorMatrix type="matrix" values="0 0 0 0 1 0 0 0 0 1 0 0 0 0 1 0 0 0 1 0"/>
<feBlend mode="normal" in2="BackgroundImageFix" result="effect1_dropShadow_22_454"/>
<feColorMatrix in="SourceAlpha" type="matrix" values="0 0 0 0 0 0 0 0 0 0 0 0 0 0 0 0 0 0 127 0" result="hardAlpha"/>
<feOffset dy="4"/>
<feGaussianBlur stdDeviation="2"/>
<feComposite in2="hardAlpha" operator="out"/>
<feColorMatrix type="matrix" values="0 0 0 0 0 0 0 0 0 0 0 0 0 0 0 0 0 0 0.25 0"/>
<feBlend mode="normal" in2="effect1_dropShadow_22_454" result="effect2_dropShadow_22_454"/>
<feBlend mode="normal" in="SourceGraphic" in2="effect2_dropShadow_22_454" result="shape"/>
</filter>
</defs>
</svg>
