<?xml version="1.0" encoding="utf-8"?>
<svg viewBox="0 0 219 97" fill="none" xmlns="http://www.w3.org/2000/svg">
    <defs>
        <filter id="filter0_f_1_27" x="197.823" y="44.4539" width="13.8074" height="29.6055"
                filterUnits="userSpaceOnUse" color-interpolation-filters="sRGB">
            <feFlood flood-opacity="0" result="BackgroundImageFix"/>
            <feBlend mode="normal" in="SourceGraphic" in2="BackgroundImageFix" result="shape"/>
            <feGaussianBlur stdDeviation="1.5" result="effect1_foregroundBlur_1_27"/>
        </filter>
        <filter id="filter1_f_1_27" x="207.184" y="26.2344" width="19.83612" height="16.1806"
                filterUnits="userSpaceOnUse" color-interpolation-filters="sRGB">
            <feFlood flood-opacity="0" result="BackgroundImageFix"/>
            <feBlend mode="normal" in="SourceGraphic" in2="BackgroundImageFix" result="shape"/>
            <feGaussianBlur stdDeviation="1.5" result="effect1_foregroundBlur_1_27"/>
        </filter>
    </defs>
    <path d="M 21.259 51.637 C 21.259 48.651 21.6 45.728 22.283 42.869 C 23.008 39.968 24.011 37.237 25.291 34.677 C 26.571 32.075 28.085 29.707 29.835 27.573 C 31.627 25.397 33.568 23.52 35.659 21.941 C 37.792 20.363 40.053 19.147 42.443 18.293 C 44.832 17.397 47.285 16.949 49.803 16.949 C 52.747 16.949 55.029 17.568 56.651 18.805 C 58.315 20.043 59.147 21.771 59.147 23.989 C 59.147 24.843 59.019 25.717 58.763 26.613 C 58.549 27.509 58.208 28.405 57.739 29.301 C 57.312 30.155 56.8 30.987 56.203 31.797 C 55.605 32.608 54.944 33.312 54.219 33.909 C 53.109 33.739 52.149 33.248 51.339 32.437 C 50.528 31.584 50.016 30.603 49.803 29.493 C 51.296 28.256 52.469 26.976 53.323 25.653 C 54.219 24.288 54.667 23.051 54.667 21.941 C 54.667 20.064 53.493 19.125 51.147 19.125 C 50.165 19.125 49.141 19.339 48.075 19.765 C 47.051 20.149 46.005 20.704 44.939 21.429 C 43.872 22.155 42.827 23.029 41.803 24.053 C 40.821 25.077 39.904 26.208 39.051 27.445 C 33.12 35.979 30.155 44.704 30.155 53.621 C 30.155 56.779 30.645 59.317 31.627 61.237 C 32.608 63.157 33.909 64.288 35.531 64.629 C 37.365 64.203 39.691 63.029 42.507 61.109 C 45.323 59.189 48.395 56.693 51.723 53.621 C 52.149 54.048 52.405 54.496 52.491 54.965 C 51.253 56.587 49.973 58.144 48.651 59.637 C 47.328 61.131 46.005 62.496 44.683 63.733 C 43.403 64.971 42.123 66.059 40.843 66.997 C 39.605 67.936 38.453 68.661 37.387 69.173 C 32.096 69.088 28.085 67.573 25.355 64.629 C 22.624 61.685 21.259 57.355 21.259 51.637 Z M 55.468 62.901 C 55.681 61.664 56.044 60.043 56.556 58.037 C 57.11 55.989 57.75 53.835 58.476 51.573 C 59.201 49.269 59.969 46.965 60.78 44.661 C 61.59 42.357 62.38 40.288 63.148 38.453 C 63.702 37.131 64.193 36.107 64.62 35.381 C 65.046 34.613 65.516 33.973 66.028 33.461 C 66.625 33.547 67.244 33.696 67.884 33.909 C 68.524 34.123 69.142 34.379 69.74 34.677 C 70.337 34.976 70.87 35.296 71.34 35.637 C 71.809 35.936 72.172 36.235 72.428 36.533 C 71.276 37.899 70.252 39.456 69.356 41.205 C 68.502 42.955 67.628 45.195 66.732 47.925 C 69.036 45.877 71.062 43.915 72.812 42.037 C 74.604 40.16 76.268 38.069 77.804 35.765 C 78.06 35.552 78.508 35.445 79.148 35.445 C 79.745 35.445 80.321 35.552 80.876 35.765 C 81.43 35.936 81.814 36.192 82.028 36.533 C 81.26 38.581 80.876 40.608 80.876 42.613 C 80.876 44.491 81.153 45.899 81.708 46.837 C 81.665 47.093 81.366 47.584 80.812 48.309 C 80.3 49.035 79.724 49.717 79.084 50.357 C 77.932 49.76 76.908 48.949 76.012 47.925 C 75.116 46.859 74.454 45.707 74.028 44.469 C 72.022 45.877 70.316 47.264 68.908 48.629 C 67.5 49.952 66.284 51.445 65.26 53.109 C 64.278 54.731 63.425 56.608 62.7 58.741 C 62.017 60.875 61.356 63.413 60.716 66.357 C 60.332 66.315 59.862 66.165 59.308 65.909 C 58.796 65.696 58.262 65.419 57.708 65.077 C 57.196 64.736 56.726 64.373 56.3 63.989 C 55.873 63.605 55.596 63.243 55.468 62.901 Z M 82.88 59.893 C 82.88 59.509 82.901 59.04 82.944 58.485 C 83.029 57.888 83.157 57.12 83.328 56.181 C 83.499 55.2 83.712 54.027 83.968 52.661 C 84.267 51.296 84.629 49.653 85.056 47.733 C 85.141 47.307 85.333 46.624 85.632 45.685 C 85.931 44.747 86.315 43.765 86.784 42.741 C 87.296 41.675 87.893 40.651 88.576 39.669 C 89.301 38.688 90.155 37.963 91.136 37.493 C 91.861 37.664 92.821 38.112 94.016 38.837 C 95.211 39.52 96.235 40.48 97.088 41.717 C 96.107 42.827 95.275 43.936 94.592 45.045 C 93.952 46.155 93.355 47.307 92.8 48.501 C 92.288 49.696 91.797 50.933 91.328 52.213 C 90.901 53.493 90.411 54.837 89.856 56.245 C 89.387 57.44 88.96 58.677 88.576 59.957 C 88.192 61.195 87.979 62.283 87.936 63.221 C 87.936 63.989 87.915 64.523 87.872 64.821 C 87.872 65.163 87.765 65.333 87.552 65.333 C 87.381 65.333 87.04 65.227 86.528 65.013 C 86.016 64.8 85.483 64.48 84.928 64.053 C 84.416 63.584 83.947 63.008 83.52 62.325 C 83.093 61.643 82.88 60.832 82.88 59.893 Z M 95.104 32.117 C 95.104 31.861 95.168 31.477 95.296 30.965 C 95.083 30.752 94.891 30.432 94.72 30.005 C 94.592 29.579 94.528 29.195 94.528 28.853 C 94.528 28.469 94.571 27.957 94.656 27.317 C 94.784 26.635 94.933 25.909 95.104 25.141 C 95.275 24.373 95.488 23.584 95.744 22.773 C 96 21.92 96.256 21.152 96.512 20.469 C 97.024 20.469 97.643 20.619 98.368 20.917 C 99.136 21.173 99.904 21.536 100.672 22.005 C 101.44 22.432 102.144 22.923 102.784 23.477 C 103.424 23.989 103.915 24.48 104.256 24.949 C 103.787 25.419 103.168 26.08 102.4 26.933 C 101.632 27.744 100.885 28.619 100.16 29.557 C 99.435 30.453 98.773 31.307 98.176 32.117 C 97.579 32.928 97.195 33.504 97.024 33.845 C 96.512 33.76 96.064 33.547 95.68 33.205 C 95.296 32.821 95.104 32.459 95.104 32.117 Z M 120.021 38.709 C 119.978 39.52 119.829 40.373 119.573 41.269 C 119.36 42.123 119.082 42.912 118.741 43.637 C 118.4 44.32 118.037 44.896 117.653 45.365 C 117.269 45.835 116.906 46.069 116.565 46.069 C 116.096 46.027 115.818 45.707 115.733 45.109 C 115.733 44.981 115.776 44.789 115.861 44.533 C 115.989 44.235 116.117 43.915 116.245 43.573 C 116.373 43.232 116.48 42.891 116.565 42.549 C 116.693 42.208 116.757 41.909 116.757 41.653 C 116.757 41.056 116.608 40.565 116.309 40.181 C 116.053 39.755 115.69 39.541 115.221 39.541 C 113.514 39.541 112.213 40.608 111.317 42.741 C 110.421 44.875 109.973 48.011 109.973 52.149 C 109.973 52.576 109.994 52.832 110.037 52.917 C 110.933 52.875 111.722 52.853 112.405 52.853 C 113.13 52.811 113.834 52.789 114.517 52.789 C 114.56 52.875 114.581 53.045 114.581 53.301 C 114.581 53.685 114.496 53.963 114.325 54.133 C 113.344 54.347 112.554 54.539 111.957 54.709 C 111.402 54.837 110.976 54.965 110.677 55.093 C 110.378 55.221 110.186 55.371 110.101 55.541 C 110.058 55.669 110.037 55.861 110.037 56.117 C 110.037 56.459 110.037 56.8 110.037 57.141 C 110.08 57.483 110.101 57.909 110.101 58.421 C 110.101 62.005 109.12 64.885 107.157 67.061 C 105.237 69.237 102.549 70.496 99.093 70.837 C 98.496 70.795 97.877 70.624 97.237 70.325 C 96.597 70.027 95.978 69.643 95.381 69.173 C 94.826 68.704 94.336 68.171 93.909 67.573 C 93.482 67.019 93.184 66.443 93.013 65.845 C 93.013 64.224 93.354 62.688 94.037 61.237 C 94.72 59.744 95.637 58.443 96.789 57.333 C 97.984 56.181 99.37 55.264 100.949 54.581 C 102.57 53.856 104.32 53.429 106.197 53.301 C 106.197 52.235 106.09 51.189 105.877 50.165 C 105.664 49.141 105.429 48.16 105.173 47.221 C 104.96 46.24 104.746 45.301 104.533 44.405 C 104.32 43.467 104.213 42.549 104.213 41.653 C 104.213 40.501 104.448 39.371 104.917 38.261 C 105.386 37.109 106.005 36.064 106.773 35.125 C 107.541 34.144 108.437 33.312 109.461 32.629 C 110.485 31.947 111.552 31.477 112.661 31.221 C 113.13 31.349 113.749 31.733 114.517 32.373 C 115.328 32.971 116.117 33.653 116.885 34.421 C 117.653 35.189 118.336 35.979 118.933 36.789 C 119.53 37.557 119.893 38.197 120.021 38.709 Z M 98.901 67.893 C 99.925 67.467 100.885 66.848 101.781 66.037 C 102.72 65.227 103.53 64.309 104.213 63.285 C 104.896 62.261 105.429 61.173 105.813 60.021 C 106.24 58.869 106.453 57.739 106.453 56.629 C 105.6 56.757 104.661 57.163 103.637 57.845 C 102.613 58.485 101.653 59.275 100.757 60.213 C 99.861 61.109 99.114 62.048 98.517 63.029 C 97.92 64.011 97.621 64.864 97.621 65.589 C 97.621 66.528 98.048 67.296 98.901 67.893 Z M 115.394 85.365 C 114.797 85.195 114.455 84.555 114.37 83.445 C 114.199 82.891 114.071 82.229 113.986 81.461 C 113.943 80.693 113.922 79.819 113.922 78.837 C 113.922 77.941 114.071 76.704 114.37 75.125 C 114.669 73.589 115.074 71.84 115.586 69.877 C 116.141 67.915 116.802 65.803 117.57 63.541 C 118.338 61.237 119.191 58.912 120.13 56.565 C 121.282 53.621 122.285 51.083 123.138 48.949 C 123.991 46.773 124.695 44.896 125.25 43.317 C 125.847 41.739 126.317 40.437 126.658 39.413 C 127.042 38.389 127.341 37.515 127.554 36.789 C 127.725 36.277 127.981 35.659 128.322 34.933 C 128.663 34.208 129.047 33.483 129.474 32.757 C 129.943 31.989 130.413 31.285 130.882 30.645 C 131.351 29.963 131.778 29.451 132.162 29.109 C 133.655 29.323 135.063 29.707 136.386 30.261 C 137.709 30.816 138.519 31.349 138.818 31.861 C 138.221 32.416 137.538 33.291 136.77 34.485 C 136.002 35.637 135.255 36.917 134.53 38.325 C 133.805 39.691 133.143 41.099 132.546 42.549 C 131.949 44 131.501 45.28 131.202 46.389 C 131.629 45.664 132.183 44.875 132.866 44.021 C 133.549 43.168 134.594 41.995 136.002 40.501 C 137.581 38.88 139.053 37.643 140.418 36.789 C 141.826 35.893 143.042 35.445 144.066 35.445 C 145.687 35.445 147.01 35.893 148.034 36.789 C 149.101 37.685 149.634 38.837 149.634 40.245 C 149.634 43.317 149.122 46.368 148.098 49.397 C 147.074 52.384 145.602 55.093 143.682 57.525 C 142.957 58.464 142.103 59.36 141.122 60.213 C 140.141 61.067 139.117 61.835 138.05 62.517 C 136.983 63.157 135.938 63.669 134.914 64.053 C 133.89 64.437 132.973 64.629 132.162 64.629 C 131.394 64.629 130.711 64.48 130.114 64.181 C 129.559 63.84 129.175 63.435 128.962 62.965 C 130.626 61.984 132.247 60.619 133.826 58.869 C 135.405 57.12 136.855 55.115 138.178 52.853 C 139.543 50.549 140.717 48.075 141.698 45.429 C 142.722 42.784 143.49 40.096 144.002 37.365 C 142.381 38.219 140.909 39.157 139.586 40.181 C 138.306 41.163 137.026 42.464 135.746 44.085 C 134.21 45.963 132.994 47.477 132.098 48.629 C 131.202 49.781 130.455 50.763 129.858 51.573 C 129.303 52.384 128.834 53.152 128.45 53.877 C 128.109 54.56 127.725 55.413 127.298 56.437 C 126.701 57.803 125.997 59.616 125.186 61.877 C 124.418 64.096 123.607 66.592 122.754 69.365 C 121.943 72.139 121.111 75.083 120.258 78.197 C 119.447 81.355 118.658 84.491 117.89 87.605 C 117.421 87.52 117.015 87.179 116.674 86.581 C 116.333 86.197 116.077 85.92 115.906 85.749 C 115.778 85.579 115.607 85.451 115.394 85.365 Z"
          fill="black" transform="matrix(1, 0, 0, 1, 0, 3.552713678800501e-15)"/>
    <path d="M 173.821 41.612 C 174.248 41.612 174.738 41.697 175.293 41.868 C 175.89 41.996 176.424 42.188 176.893 42.444 C 177.362 42.657 177.746 42.892 178.045 43.148 C 178.386 43.404 178.557 43.639 178.557 43.852 C 177.704 45.644 176.914 47.457 176.189 49.292 C 175.464 51.084 174.845 52.812 174.333 54.476 C 173.821 56.14 173.416 57.697 173.117 59.148 C 172.861 60.599 172.733 61.857 172.733 62.924 C 172.733 64.119 172.861 65.121 173.117 65.932 C 173.373 66.7 173.8 67.255 174.397 67.596 C 173.885 67.937 173.224 68.215 172.413 68.428 C 171.602 68.641 170.877 68.748 170.237 68.748 C 167.933 68.748 166.781 67.169 166.781 64.012 C 166.781 61.58 167.592 58.252 169.213 54.028 C 168.36 55.991 167.378 57.847 166.269 59.596 C 165.16 61.303 164.029 62.817 162.877 64.14 C 161.725 65.463 160.552 66.551 159.357 67.404 C 158.205 68.215 157.138 68.705 156.157 68.876 C 154.578 68.791 153.298 68.044 152.317 66.636 C 151.336 65.185 150.845 63.351 150.845 61.132 C 150.845 58.743 151.357 56.225 152.381 53.58 C 153.405 50.935 154.706 48.481 156.285 46.22 C 157.906 43.959 159.656 42.081 161.533 40.588 C 163.41 39.052 165.224 38.241 166.973 38.156 C 167.4 38.284 167.869 38.54 168.381 38.924 C 168.936 39.308 169.448 39.756 169.917 40.268 C 170.429 40.78 170.856 41.313 171.197 41.868 C 171.538 42.38 171.73 42.828 171.773 43.212 C 170.066 43.468 168.296 44.3 166.461 45.708 C 164.669 47.116 163.026 48.823 161.533 50.828 C 160.082 52.791 158.888 54.903 157.949 57.164 C 157.01 59.425 156.541 61.537 156.541 63.5 C 156.541 64.311 156.84 64.823 157.437 65.036 C 158.674 64.78 160.104 63.735 161.725 61.9 C 163.346 60.023 165.309 57.143 167.613 53.26 C 168.04 52.492 168.509 51.639 169.021 50.7 C 169.576 49.761 170.13 48.78 170.685 47.756 C 171.24 46.732 171.773 45.708 172.285 44.684 C 172.84 43.617 173.352 42.593 173.821 41.612 Z"
          fill="#CDAA7D" transform="matrix(1, 0, 0, 1, 0, 3.552713678800501e-15)"/>
    <path d="M 185.903 44.016 C 186.53 41.898 188.792 40.543 190.955 40.99 L 196.831 42.205 C 198.995 42.652 200.24 44.732 199.614 46.85 L 192.806 69.864 C 192.179 71.983 189.917 73.337 187.754 72.89 L 181.878 71.676 C 179.715 71.228 178.469 69.149 179.096 67.03 L 185.903 44.016 Z"
          fill="#CDAA7D" transform="matrix(1, 0, 0, 1, 0, 3.552713678800501e-15)"/>
    <rect width="6" height="14.947" rx="3"
          transform="matrix(0.9792990088462831, 0.20241701602935794, -0.2846580147743225, 0.9623000025749208, 195.44287109375003, 25.278551101684577)"
          fill="#CDAA7D"/>
    <ellipse cx="4" cy="7.5" rx="4" ry="7.474"
             transform="matrix(0.9792990088462831, 0.20241701602935794, -0.2846580147743225, 0.9623000025749208, 194.7543640136719, 24.091836929321296)"
             fill="#CDAA7D"/>
    <g filter="url(#filter0_f_1_27)" transform="matrix(1, 0, 0, 1, -15.71712875366211, -1.5319468975067103)">
        <path d="M200.844 70.4681C200.765 70.7329 200.921 70.9929 201.191 71.0488C201.462 71.1047 201.745 70.9354 201.823 70.6706L200.844 70.4681ZM207.651 47.4539L200.844 70.4681L201.823 70.6706L208.631 47.6564L207.651 47.4539Z"
              fill="white"/>
    </g>
    <g filter="url(#filter1_f_1_27)" transform="matrix(1, 0, 0, 1, -15.71712875366211, -1.5319468975067103)">
        <path d="M210.204 38.8236C210.126 39.0884 210.282 39.3484 210.552 39.4043C210.823 39.4602 211.105 39.2908 211.184 39.026L210.204 38.8236ZM213.041 29.2344L210.204 38.8236L211.184 39.026L214.02 29.4368L213.041 29.2344Z"
              fill="white"/>
    </g>
</svg>
