<svg width="719" height="719" viewBox="0 0 719 719" fill="none" xmlns="http://www.w3.org/2000/svg">
<path fill-rule="evenodd" clip-rule="evenodd" d="M391.847 154.264C380.605 123.713 337.395 123.713 326.153 154.264L319.322 172.827C311.842 193.156 287.88 201.877 269.083 191.113L251.917 181.283C223.668 165.106 190.567 192.881 201.593 223.51L208.293 242.122C215.629 262.502 202.879 284.586 181.561 288.423L162.093 291.926C130.054 297.693 122.551 340.246 150.685 356.622L167.781 366.573C186.501 377.469 190.929 402.582 177.065 419.224L164.404 434.422C143.567 459.433 165.172 496.854 197.25 491.314L216.743 487.948C238.087 484.262 257.622 500.653 257.698 522.314L257.768 542.095C257.883 574.648 298.487 589.427 319.5 564.563L332.268 549.455C346.25 532.911 371.75 532.911 385.732 549.455L398.5 564.563C419.513 589.427 460.117 574.648 460.232 542.095L460.302 522.314C460.378 500.654 479.913 484.262 501.257 487.948L520.75 491.314C552.828 496.854 574.433 459.433 553.596 434.422L540.935 419.224C527.071 402.582 531.499 377.469 550.219 366.573L567.315 356.622C595.449 340.246 587.946 297.693 555.907 291.926L536.439 288.423C515.121 284.586 502.371 262.502 509.707 242.122L516.407 223.51C527.433 192.881 494.332 165.106 466.083 181.283L448.917 191.113C430.12 201.877 406.158 193.156 398.678 172.827L391.847 154.264ZM359 439C402.63 439 438 403.63 438 360C438 316.369 402.63 281 359 281C315.37 281 280 316.369 280 360C280 403.63 315.37 439 359 439Z" fill="black"/>
</svg>
